<?xml version="1.0" encoding="utf-8" ?>
<svg baseProfile="tiny" height="1024" version="1.2" width="1024" xmlns="http://www.w3.org/2000/svg" xmlns:ev="http://www.w3.org/2001/xml-events" xmlns:xlink="http://www.w3.org/1999/xlink"><defs /><rect fill="#808080" height="1024" width="1024" x="0" y="0" /><rect fill="#b22222" height="50" width="100" x="0" y="0" /><rect fill="#b22222" height="50" width="100" x="110" y="0" /><rect fill="#b22222" height="50" width="100" x="220" y="0" /><rect fill="#b22222" height="50" width="100" x="330" y="0" /><rect fill="#b22222" height="50" width="100" x="440" y="0" /><rect fill="#b22222" height="50" width="100" x="550" y="0" /><rect fill="#b22222" height="50" width="100" x="660" y="0" /><rect fill="#b22222" height="50" width="100" x="770" y="0" /><rect fill="#b22222" height="50" width="100" x="880" y="0" /><rect fill="#b22222" height="50" width="100" x="990" y="0" /><rect fill="#b22222" height="50" width="100" x="55" y="60" /><rect fill="#b22222" height="50" width="100" x="165" y="60" /><rect fill="#b22222" height="50" width="100" x="275" y="60" /><rect fill="#b22222" height="50" width="100" x="385" y="60" /><rect fill="#b22222" height="50" width="100" x="495" y="60" /><rect fill="#b22222" height="50" width="100" x="605" y="60" /><rect fill="#b22222" height="50" width="100" x="715" y="60" /><rect fill="#b22222" height="50" width="100" x="825" y="60" /><rect fill="#b22222" height="50" width="100" x="935" y="60" /><rect fill="#b22222" height="50" width="100" x="0" y="120" /><rect fill="#b22222" height="50" width="100" x="110" y="120" /><rect fill="#b22222" height="50" width="100" x="220" y="120" /><rect fill="#b22222" height="50" width="100" x="330" y="120" /><rect fill="#b22222" height="50" width="100" x="440" y="120" /><rect fill="#b22222" height="50" width="100" x="550" y="120" /><rect fill="#b22222" height="50" width="100" x="660" y="120" /><rect fill="#b22222" height="50" width="100" x="770" y="120" /><rect fill="#b22222" height="50" width="100" x="880" y="120" /><rect fill="#b22222" height="50" width="100" x="990" y="120" /><rect fill="#b22222" height="50" width="100" x="55" y="180" /><rect fill="#b22222" height="50" width="100" x="165" y="180" /><rect fill="#b22222" height="50" width="100" x="275" y="180" /><rect fill="#b22222" height="50" width="100" x="385" y="180" /><rect fill="#b22222" height="50" width="100" x="495" y="180" /><rect fill="#b22222" height="50" width="100" x="605" y="180" /><rect fill="#b22222" height="50" width="100" x="715" y="180" /><rect fill="#b22222" height="50" width="100" x="825" y="180" /><rect fill="#b22222" height="50" width="100" x="935" y="180" /><rect fill="#b22222" height="50" width="100" x="0" y="240" /><rect fill="#b22222" height="50" width="100" x="110" y="240" /><rect fill="#b22222" height="50" width="100" x="220" y="240" /><rect fill="#b22222" height="50" width="100" x="330" y="240" /><rect fill="#b22222" height="50" width="100" x="440" y="240" /><rect fill="#b22222" height="50" width="100" x="550" y="240" /><rect fill="#b22222" height="50" width="100" x="660" y="240" /><rect fill="#b22222" height="50" width="100" x="770" y="240" /><rect fill="#b22222" height="50" width="100" x="880" y="240" /><rect fill="#b22222" height="50" width="100" x="990" y="240" /><rect fill="#b22222" height="50" width="100" x="55" y="300" /><rect fill="#b22222" height="50" width="100" x="165" y="300" /><rect fill="#b22222" height="50" width="100" x="275" y="300" /><rect fill="#b22222" height="50" width="100" x="385" y="300" /><rect fill="#b22222" height="50" width="100" x="495" y="300" /><rect fill="#b22222" height="50" width="100" x="605" y="300" /><rect fill="#b22222" height="50" width="100" x="715" y="300" /><rect fill="#b22222" height="50" width="100" x="825" y="300" /><rect fill="#b22222" height="50" width="100" x="935" y="300" /><rect fill="#b22222" height="50" width="100" x="0" y="360" /><rect fill="#b22222" height="50" width="100" x="110" y="360" /><rect fill="#b22222" height="50" width="100" x="220" y="360" /><rect fill="#b22222" height="50" width="100" x="330" y="360" /><rect fill="#b22222" height="50" width="100" x="440" y="360" /><rect fill="#b22222" height="50" width="100" x="550" y="360" /><rect fill="#b22222" height="50" width="100" x="660" y="360" /><rect fill="#b22222" height="50" width="100" x="770" y="360" /><rect fill="#b22222" height="50" width="100" x="880" y="360" /><rect fill="#b22222" height="50" width="100" x="990" y="360" /><rect fill="#b22222" height="50" width="100" x="55" y="420" /><rect fill="#b22222" height="50" width="100" x="165" y="420" /><rect fill="#b22222" height="50" width="100" x="275" y="420" /><rect fill="#b22222" height="50" width="100" x="385" y="420" /><rect fill="#b22222" height="50" width="100" x="495" y="420" /><rect fill="#b22222" height="50" width="100" x="605" y="420" /><rect fill="#b22222" height="50" width="100" x="715" y="420" /><rect fill="#b22222" height="50" width="100" x="825" y="420" /><rect fill="#b22222" height="50" width="100" x="935" y="420" /><rect fill="#b22222" height="50" width="100" x="0" y="480" /><rect fill="#b22222" height="50" width="100" x="110" y="480" /><rect fill="#b22222" height="50" width="100" x="220" y="480" /><rect fill="#b22222" height="50" width="100" x="330" y="480" /><rect fill="#b22222" height="50" width="100" x="440" y="480" /><rect fill="#b22222" height="50" width="100" x="550" y="480" /><rect fill="#b22222" height="50" width="100" x="660" y="480" /><rect fill="#b22222" height="50" width="100" x="770" y="480" /><rect fill="#b22222" height="50" width="100" x="880" y="480" /><rect fill="#b22222" height="50" width="100" x="990" y="480" /><rect fill="#b22222" height="50" width="100" x="55" y="540" /><rect fill="#b22222" height="50" width="100" x="165" y="540" /><rect fill="#b22222" height="50" width="100" x="275" y="540" /><rect fill="#b22222" height="50" width="100" x="385" y="540" /><rect fill="#b22222" height="50" width="100" x="495" y="540" /><rect fill="#b22222" height="50" width="100" x="605" y="540" /><rect fill="#b22222" height="50" width="100" x="715" y="540" /><rect fill="#b22222" height="50" width="100" x="825" y="540" /><rect fill="#b22222" height="50" width="100" x="935" y="540" /><rect fill="#b22222" height="50" width="100" x="0" y="600" /><rect fill="#b22222" height="50" width="100" x="110" y="600" /><rect fill="#b22222" height="50" width="100" x="220" y="600" /><rect fill="#b22222" height="50" width="100" x="330" y="600" /><rect fill="#b22222" height="50" width="100" x="440" y="600" /><rect fill="#b22222" height="50" width="100" x="550" y="600" /><rect fill="#b22222" height="50" width="100" x="660" y="600" /><rect fill="#b22222" height="50" width="100" x="770" y="600" /><rect fill="#b22222" height="50" width="100" x="880" y="600" /><rect fill="#b22222" height="50" width="100" x="990" y="600" /><rect fill="#b22222" height="50" width="100" x="55" y="660" /><rect fill="#b22222" height="50" width="100" x="165" y="660" /><rect fill="#b22222" height="50" width="100" x="275" y="660" /><rect fill="#b22222" height="50" width="100" x="385" y="660" /><rect fill="#b22222" height="50" width="100" x="495" y="660" /><rect fill="#b22222" height="50" width="100" x="605" y="660" /><rect fill="#b22222" height="50" width="100" x="715" y="660" /><rect fill="#b22222" height="50" width="100" x="825" y="660" /><rect fill="#b22222" height="50" width="100" x="935" y="660" /><rect fill="#b22222" height="50" width="100" x="0" y="720" /><rect fill="#b22222" height="50" width="100" x="110" y="720" /><rect fill="#b22222" height="50" width="100" x="220" y="720" /><rect fill="#b22222" height="50" width="100" x="330" y="720" /><rect fill="#b22222" height="50" width="100" x="440" y="720" /><rect fill="#b22222" height="50" width="100" x="550" y="720" /><rect fill="#b22222" height="50" width="100" x="660" y="720" /><rect fill="#b22222" height="50" width="100" x="770" y="720" /><rect fill="#b22222" height="50" width="100" x="880" y="720" /><rect fill="#b22222" height="50" width="100" x="990" y="720" /><rect fill="#b22222" height="50" width="100" x="55" y="780" /><rect fill="#b22222" height="50" width="100" x="165" y="780" /><rect fill="#b22222" height="50" width="100" x="275" y="780" /><rect fill="#b22222" height="50" width="100" x="385" y="780" /><rect fill="#b22222" height="50" width="100" x="495" y="780" /><rect fill="#b22222" height="50" width="100" x="605" y="780" /><rect fill="#b22222" height="50" width="100" x="715" y="780" /><rect fill="#b22222" height="50" width="100" x="825" y="780" /><rect fill="#b22222" height="50" width="100" x="935" y="780" /><rect fill="#b22222" height="50" width="100" x="0" y="840" /><rect fill="#b22222" height="50" width="100" x="110" y="840" /><rect fill="#b22222" height="50" width="100" x="220" y="840" /><rect fill="#b22222" height="50" width="100" x="330" y="840" /><rect fill="#b22222" height="50" width="100" x="440" y="840" /><rect fill="#b22222" height="50" width="100" x="550" y="840" /><rect fill="#b22222" height="50" width="100" x="660" y="840" /><rect fill="#b22222" height="50" width="100" x="770" y="840" /><rect fill="#b22222" height="50" width="100" x="880" y="840" /><rect fill="#b22222" height="50" width="100" x="990" y="840" /><rect fill="#b22222" height="50" width="100" x="55" y="900" /><rect fill="#b22222" height="50" width="100" x="165" y="900" /><rect fill="#b22222" height="50" width="100" x="275" y="900" /><rect fill="#b22222" height="50" width="100" x="385" y="900" /><rect fill="#b22222" height="50" width="100" x="495" y="900" /><rect fill="#b22222" height="50" width="100" x="605" y="900" /><rect fill="#b22222" height="50" width="100" x="715" y="900" /><rect fill="#b22222" height="50" width="100" x="825" y="900" /><rect fill="#b22222" height="50" width="100" x="935" y="900" /><rect fill="#b22222" height="50" width="100" x="0" y="960" /><rect fill="#b22222" height="50" width="100" x="110" y="960" /><rect fill="#b22222" height="50" width="100" x="220" y="960" /><rect fill="#b22222" height="50" width="100" x="330" y="960" /><rect fill="#b22222" height="50" width="100" x="440" y="960" /><rect fill="#b22222" height="50" width="100" x="550" y="960" /><rect fill="#b22222" height="50" width="100" x="660" y="960" /><rect fill="#b22222" height="50" width="100" x="770" y="960" /><rect fill="#b22222" height="50" width="100" x="880" y="960" /><rect fill="#b22222" height="50" width="100" x="990" y="960" /><rect fill="#b22222" height="50" width="100" x="55" y="1020" /><rect fill="#b22222" height="50" width="100" x="165" y="1020" /><rect fill="#b22222" height="50" width="100" x="275" y="1020" /><rect fill="#b22222" height="50" width="100" x="385" y="1020" /><rect fill="#b22222" height="50" width="100" x="495" y="1020" /><rect fill="#b22222" height="50" width="100" x="605" y="1020" /><rect fill="#b22222" height="50" width="100" x="715" y="1020" /><rect fill="#b22222" height="50" width="100" x="825" y="1020" /><rect fill="#b22222" height="50" width="100" x="935" y="1020" /></svg>